<svg id="svg" version="1.1" xmlns="http://www.w3.org/2000/svg" xmlns:xlink="http://www.w3.org/1999/xlink" width="400" height="400" viewBox="0, 0, 400,400"><g id="svgg"><path id="path0" d="M195.313 46.850 C 192.904 47.770,191.016 48.785,191.016 49.160 C 191.016 49.332,190.315 50.162,189.460 51.006 C 188.604 51.849,187.901 52.759,187.897 53.027 C 187.894 53.296,187.719 53.516,187.510 53.516 C 187.301 53.516,186.834 54.087,186.473 54.785 C 186.113 55.483,185.537 56.287,185.194 56.572 C 184.711 56.973,184.702 57.026,185.156 56.807 C 185.479 56.653,185.360 56.897,184.894 57.351 C 184.427 57.805,183.932 58.534,183.793 58.971 C 183.655 59.408,183.377 59.766,183.177 59.766 C 182.976 59.766,182.813 60.029,182.813 60.352 C 182.813 60.674,182.637 60.938,182.422 60.938 C 182.207 60.938,182.052 61.069,182.078 61.230 C 182.196 61.978,181.999 62.526,181.682 62.330 C 181.490 62.212,181.225 62.548,181.092 63.078 C 180.959 63.608,180.457 64.423,179.976 64.890 C 179.495 65.358,179.365 65.613,179.688 65.458 C 180.055 65.282,180.021 65.384,179.596 65.732 C 179.223 66.038,179.033 66.403,179.173 66.543 C 179.313 66.682,179.212 66.797,178.948 66.797 C 178.685 66.797,178.578 66.973,178.711 67.188 C 178.844 67.402,178.770 67.578,178.546 67.578 C 178.323 67.578,178.030 68.016,177.895 68.552 C 177.760 69.093,177.469 69.414,177.242 69.273 C 177.002 69.125,176.949 69.208,177.113 69.474 C 177.267 69.724,177.119 70.203,176.783 70.539 C 176.447 70.875,176.172 71.411,176.172 71.731 C 176.172 72.070,175.985 72.196,175.721 72.033 C 175.448 71.865,175.376 71.925,175.537 72.187 C 175.684 72.425,175.492 72.985,175.109 73.432 C 174.727 73.879,174.402 74.370,174.386 74.524 C 174.344 74.952,173.290 77.123,173.017 77.344 C 172.885 77.451,172.656 78.030,172.510 78.629 C 172.363 79.229,172.094 79.628,171.912 79.515 C 171.731 79.403,171.361 80.099,171.092 81.062 C 170.822 82.025,170.419 82.813,170.197 82.813 C 169.974 82.813,169.904 82.925,170.042 83.063 C 170.179 83.200,170.033 83.771,169.716 84.332 C 168.943 85.700,166.128 92.935,165.812 94.366 C 165.673 94.994,165.460 95.771,165.338 96.094 C 165.217 96.416,165.051 97.024,164.971 97.444 C 164.890 97.864,164.642 98.321,164.419 98.459 C 164.196 98.596,163.998 99.263,163.979 99.940 C 163.959 100.618,163.811 101.172,163.649 101.172 C 163.487 101.172,163.446 101.523,163.559 101.953 C 163.671 102.383,163.577 102.734,163.349 102.734 C 163.122 102.734,163.003 103.086,163.086 103.516 C 163.169 103.945,163.050 104.297,162.823 104.297 C 162.595 104.297,162.501 104.648,162.613 105.078 C 162.725 105.507,162.651 105.961,162.447 106.087 C 162.244 106.213,162.187 106.661,162.321 107.083 C 162.455 107.505,162.355 108.103,162.098 108.412 C 161.841 108.721,161.731 109.235,161.853 109.553 C 161.975 109.871,161.931 110.220,161.755 110.329 C 161.579 110.438,161.482 111.323,161.539 112.295 C 161.596 113.267,161.516 114.142,161.360 114.238 C 160.870 114.541,161.217 124.189,161.754 125.195 C 161.868 125.410,161.932 125.981,161.894 126.465 C 161.856 126.948,161.985 127.344,162.180 127.344 C 162.375 127.344,162.494 127.563,162.444 127.832 C 162.323 128.490,162.913 131.739,163.243 132.227 C 163.387 132.441,163.561 133.145,163.629 133.789 C 163.697 134.434,163.949 135.083,164.189 135.233 C 164.429 135.382,164.501 135.630,164.348 135.783 C 164.194 135.936,164.240 136.267,164.449 136.518 C 164.657 136.770,164.881 137.313,164.945 137.726 C 165.009 138.139,165.199 138.696,165.366 138.965 C 165.534 139.233,165.551 139.453,165.405 139.453 C 165.259 139.453,165.372 139.734,165.657 140.077 C 165.941 140.420,166.230 141.080,166.297 141.542 C 166.365 142.004,166.798 142.899,167.260 143.529 C 167.721 144.160,168.099 144.907,168.099 145.189 C 168.099 145.472,168.245 145.703,168.424 145.703 C 168.604 145.703,168.714 145.835,168.671 145.996 C 168.549 146.448,170.180 149.404,170.866 149.973 C 171.201 150.251,171.379 150.635,171.262 150.826 C 171.144 151.016,171.237 151.172,171.468 151.172 C 171.699 151.172,172.192 151.831,172.565 152.637 C 172.937 153.442,173.553 154.333,173.932 154.617 C 174.312 154.900,174.504 155.322,174.360 155.556 C 174.204 155.809,174.280 155.868,174.550 155.701 C 174.820 155.534,175.144 155.784,175.356 156.324 C 175.551 156.820,176.034 157.522,176.429 157.883 C 177.438 158.803,178.200 159.766,177.919 159.766 C 177.789 159.766,183.364 165.471,190.306 172.445 C 202.199 184.391,206.327 188.672,205.954 188.672 C 205.865 188.672,206.532 189.507,207.435 190.527 C 208.339 191.548,209.261 192.778,209.484 193.262 C 209.708 193.745,210.049 194.141,210.242 194.141 C 210.435 194.141,210.496 194.298,210.377 194.490 C 210.258 194.683,210.435 194.945,210.769 195.073 C 211.104 195.202,211.268 195.484,211.135 195.700 C 211.001 195.917,211.048 196.094,211.238 196.094 C 211.429 196.094,211.997 196.973,212.500 198.047 C 213.003 199.121,213.561 200.000,213.739 200.000 C 213.917 200.000,214.063 200.264,214.063 200.586 C 214.063 200.908,214.210 201.172,214.391 201.172 C 214.571 201.172,214.951 201.875,215.234 202.734 C 215.518 203.594,215.916 204.297,216.120 204.297 C 216.323 204.297,216.385 204.570,216.257 204.903 C 216.105 205.299,216.181 205.412,216.477 205.230 C 216.779 205.043,216.847 205.166,216.680 205.600 C 216.543 205.957,216.564 206.250,216.726 206.250 C 216.888 206.250,217.049 206.558,217.082 206.934 C 217.115 207.310,217.473 208.606,217.878 209.814 C 218.282 211.022,218.585 212.384,218.551 212.841 C 218.517 213.298,218.592 213.672,218.718 213.672 C 218.949 213.672,219.002 214.377,219.087 218.555 C 219.129 220.613,219.062 221.855,218.649 226.660 C 218.598 227.251,218.405 227.734,218.221 227.734 C 218.036 227.734,217.995 228.020,218.129 228.370 C 218.424 229.138,216.788 234.415,216.340 234.139 C 216.167 234.032,216.140 234.245,216.282 234.614 C 216.470 235.105,216.400 235.199,216.022 234.965 C 215.693 234.762,215.598 234.797,215.761 235.061 C 216.099 235.607,215.642 236.775,215.198 236.501 C 215.008 236.384,214.968 236.589,215.110 236.958 C 215.283 237.410,215.220 237.537,214.915 237.348 C 214.619 237.166,214.543 237.279,214.693 237.672 C 214.830 238.027,214.667 238.373,214.298 238.515 C 213.954 238.647,213.672 239.000,213.672 239.300 C 213.672 239.599,213.486 239.844,213.258 239.844 C 213.031 239.844,212.933 239.988,213.042 240.163 C 213.151 240.339,212.809 240.947,212.284 241.513 C 211.758 242.080,211.328 242.662,211.328 242.806 C 211.328 243.192,203.771 250.387,203.363 250.389 C 203.172 250.390,202.764 250.698,202.456 251.074 C 202.089 251.521,201.983 251.555,202.148 251.172 C 202.317 250.781,202.217 250.811,201.846 251.263 C 201.540 251.636,201.180 251.831,201.045 251.696 C 200.910 251.561,200.689 251.739,200.554 252.090 C 200.419 252.442,200.151 252.633,199.959 252.514 C 199.767 252.395,199.609 252.494,199.609 252.734 C 199.609 252.975,199.434 253.062,199.219 252.930 C 199.004 252.797,198.828 252.885,198.828 253.125 C 198.828 253.365,198.672 253.465,198.482 253.348 C 198.291 253.230,197.920 253.393,197.656 253.711 C 197.393 254.028,197.021 254.192,196.831 254.074 C 196.640 253.956,196.484 254.057,196.484 254.297 C 196.484 254.537,196.309 254.625,196.094 254.492 C 195.879 254.359,195.703 254.400,195.703 254.583 C 195.703 254.932,192.161 255.981,187.891 256.895 C 185.201 257.471,175.468 257.862,175.185 257.406 C 175.094 257.257,174.575 257.221,174.033 257.324 C 173.413 257.443,173.047 257.335,173.047 257.035 C 173.047 256.761,172.785 256.658,172.433 256.793 C 171.544 257.134,168.315 256.248,168.624 255.748 C 168.786 255.485,168.622 255.434,168.172 255.607 C 167.731 255.776,167.167 255.617,166.673 255.185 C 166.238 254.804,165.996 254.690,166.137 254.932 C 166.483 255.528,161.355 252.823,160.254 251.829 C 159.771 251.393,159.372 251.198,159.369 251.397 C 159.366 251.595,159.234 251.582,159.076 251.367 C 158.918 251.152,157.910 250.278,156.836 249.424 C 154.921 247.903,152.734 245.785,152.734 245.453 C 152.734 245.360,152.339 244.845,151.855 244.309 C 151.372 243.772,150.669 242.987,150.293 242.565 C 149.917 242.142,149.609 241.611,149.609 241.383 C 149.609 241.156,149.452 241.067,149.260 241.185 C 149.068 241.304,148.801 240.963,148.667 240.427 C 148.533 239.891,148.250 239.453,148.039 239.453 C 147.829 239.453,147.656 239.091,147.656 238.649 C 147.656 238.206,147.512 237.933,147.337 238.042 C 146.842 238.348,145.130 234.502,144.313 231.250 C 143.909 229.639,143.466 228.232,143.329 228.125 C 143.191 228.018,143.123 227.647,143.177 227.302 C 143.230 226.957,143.042 225.779,142.758 224.685 C 142.356 223.135,142.232 216.474,142.198 194.454 C 142.153 165.069,142.088 162.941,141.189 161.328 C 140.889 160.791,140.532 160.044,140.394 159.668 C 140.256 159.292,139.988 158.984,139.798 158.984 C 139.608 158.984,139.453 158.808,139.453 158.593 C 139.453 157.341,132.553 152.756,131.577 153.360 C 131.397 153.471,131.250 153.387,131.250 153.172 C 131.250 152.958,130.942 152.791,130.566 152.802 C 130.190 152.812,129.253 152.725,128.484 152.608 C 126.498 152.307,121.487 153.704,121.173 154.646 C 121.093 154.884,120.824 155.083,120.573 155.088 C 120.322 155.093,118.887 156.266,117.383 157.693 C 115.879 159.120,114.912 160.153,115.234 159.988 C 115.557 159.823,115.187 160.276,114.413 160.996 C 113.639 161.716,112.145 163.403,111.093 164.745 C 110.041 166.087,109.048 167.185,108.887 167.186 C 108.726 167.187,108.594 167.354,108.594 167.558 C 108.594 167.762,108.154 168.403,107.617 168.982 C 107.080 169.562,106.641 170.252,106.641 170.515 C 106.641 170.779,105.944 171.757,105.094 172.687 C 104.243 173.618,103.622 174.456,103.715 174.548 C 103.919 174.752,102.591 176.730,101.207 178.283 C 100.650 178.907,100.459 179.290,100.781 179.133 C 101.136 178.960,101.098 179.069,100.684 179.409 C 100.308 179.717,100.000 180.224,100.000 180.536 C 100.000 180.848,99.648 181.480,99.219 181.941 C 98.789 182.402,98.438 183.051,98.438 183.382 C 98.438 183.713,98.283 183.984,98.094 183.984 C 97.804 183.984,96.705 186.112,96.681 186.719 C 96.667 187.077,95.215 190.032,94.791 190.565 C 94.561 190.855,94.319 191.440,94.254 191.865 C 94.189 192.290,93.874 192.901,93.553 193.222 C 93.231 193.543,92.969 194.145,92.969 194.559 C 92.969 194.973,92.783 195.313,92.555 195.313 C 92.328 195.313,92.243 195.477,92.367 195.678 C 92.491 195.879,92.241 196.670,91.811 197.436 C 91.381 198.202,91.135 198.828,91.265 198.828 C 91.395 198.828,91.321 199.048,91.101 199.316 C 90.880 199.585,90.590 200.500,90.456 201.351 C 90.322 202.201,90.080 202.992,89.918 203.109 C 89.755 203.225,89.636 203.584,89.653 203.906 C 89.670 204.229,89.452 204.863,89.169 205.316 C 88.886 205.769,88.776 206.457,88.925 206.845 C 89.125 207.368,89.062 207.467,88.678 207.230 C 88.371 207.041,88.255 207.063,88.392 207.285 C 88.618 207.650,88.115 210.551,87.623 211.719 C 87.487 212.041,87.308 212.832,87.224 213.477 C 87.140 214.121,86.786 215.967,86.437 217.578 C 86.087 219.189,85.784 221.035,85.763 221.680 C 85.741 222.324,85.620 223.027,85.492 223.242 C 85.365 223.457,85.297 224.336,85.342 225.195 C 85.386 226.055,85.319 226.934,85.192 227.148 C 84.659 228.051,84.619 249.805,85.151 249.805 C 85.197 249.805,85.301 250.508,85.381 251.367 C 85.734 255.180,85.928 256.649,86.489 259.766 C 86.818 261.592,87.196 263.525,87.328 264.063 C 87.461 264.600,87.628 265.391,87.698 265.820 C 87.768 266.250,87.854 266.602,87.888 266.602 C 87.996 266.602,88.344 268.134,88.397 268.848 C 88.426 269.224,88.587 269.531,88.756 269.531 C 88.924 269.531,89.026 269.663,88.981 269.824 C 88.937 269.985,89.385 271.549,89.976 273.299 C 90.568 275.049,91.137 276.982,91.240 277.596 C 91.492 279.103,92.240 280.942,92.855 281.571 C 93.132 281.855,93.359 282.416,93.359 282.817 C 93.359 283.219,93.538 283.658,93.756 283.793 C 93.975 283.928,94.052 284.202,93.929 284.402 C 93.805 284.602,93.909 284.766,94.159 284.766 C 94.410 284.766,94.514 285.029,94.390 285.352 C 94.266 285.674,94.335 285.938,94.544 285.938 C 94.752 285.938,94.889 286.069,94.849 286.230 C 94.753 286.621,95.821 288.808,97.281 291.211 C 97.934 292.285,98.655 293.647,98.882 294.238 C 99.109 294.829,99.464 295.313,99.671 295.313 C 99.877 295.313,99.937 295.488,99.805 295.703 C 99.672 295.918,99.760 296.094,100.000 296.094 C 100.240 296.094,100.328 296.270,100.195 296.484 C 100.063 296.699,100.150 296.875,100.391 296.875 C 100.631 296.875,100.735 297.025,100.621 297.209 C 100.508 297.392,100.843 297.945,101.367 298.438 C 101.891 298.930,102.227 299.483,102.113 299.666 C 102.000 299.850,102.104 300.000,102.344 300.000 C 102.584 300.000,102.688 300.149,102.576 300.331 C 102.464 300.513,102.914 301.216,103.576 301.893 C 104.238 302.571,104.628 303.128,104.441 303.131 C 104.254 303.134,104.365 303.304,104.688 303.507 C 105.010 303.711,105.273 304.024,105.273 304.203 C 105.273 304.381,105.713 304.995,106.250 305.565 C 107.789 307.200,108.255 307.812,107.962 307.812 C 107.813 307.812,108.158 308.214,108.728 308.704 C 109.299 309.194,109.766 309.809,109.766 310.071 C 109.766 310.333,109.941 310.547,110.156 310.547 C 110.371 310.547,110.503 310.679,110.449 310.840 C 110.396 311.001,110.483 311.133,110.644 311.133 C 110.804 311.133,111.507 311.931,112.206 312.908 C 113.672 314.956,123.097 324.440,123.535 324.307 C 123.696 324.259,123.784 324.438,123.730 324.707 C 123.677 324.976,123.840 325.156,124.093 325.107 C 124.345 325.059,125.123 325.709,125.821 326.553 C 126.519 327.397,127.219 328.007,127.377 327.909 C 127.536 327.811,128.325 328.427,129.132 329.278 C 129.938 330.129,130.721 330.750,130.872 330.656 C 131.022 330.563,131.477 330.854,131.881 331.302 C 133.020 332.563,135.750 334.642,135.405 333.984 C 135.235 333.662,135.462 333.813,135.908 334.321 C 136.354 334.828,136.719 335.121,136.719 334.971 C 136.719 334.822,137.422 335.257,138.281 335.938 C 139.141 336.618,139.846 337.028,139.850 336.849 C 139.853 336.670,139.985 336.723,140.143 336.967 C 140.301 337.211,141.484 337.955,142.773 338.619 C 144.063 339.284,144.941 339.839,144.727 339.854 C 144.512 339.869,145.303 340.382,146.484 340.995 C 147.666 341.607,148.765 342.028,148.926 341.930 C 149.087 341.831,149.219 341.937,149.219 342.164 C 149.219 342.392,149.351 342.555,149.512 342.527 C 150.036 342.436,152.344 343.521,152.344 343.859 C 152.344 344.039,152.520 344.078,152.734 343.945 C 152.949 343.813,153.125 343.853,153.125 344.034 C 153.125 344.216,153.505 344.394,153.969 344.429 C 154.433 344.464,154.957 344.721,155.135 345.000 C 155.312 345.279,155.459 345.365,155.463 345.190 C 155.466 345.016,156.349 345.352,157.424 345.937 C 158.499 346.522,159.496 346.885,159.638 346.742 C 159.781 346.599,160.220 346.775,160.615 347.132 C 161.010 347.489,161.442 347.673,161.575 347.539 C 161.709 347.406,162.367 347.588,163.038 347.944 C 163.709 348.300,164.434 348.618,164.648 348.650 C 164.863 348.683,165.127 348.751,165.234 348.801 C 165.428 348.892,166.926 349.169,167.871 349.288 C 168.140 349.321,168.359 349.495,168.359 349.674 C 168.359 349.854,169.033 350.000,169.857 350.000 C 170.680 350.000,171.471 350.116,171.613 350.259 C 172.150 350.796,184.399 353.051,188.307 353.332 C 202.230 354.333,226.147 352.499,228.387 350.259 C 228.529 350.116,229.320 350.000,230.143 350.000 C 230.967 350.000,231.641 349.854,231.641 349.674 C 231.641 349.495,231.860 349.321,232.129 349.288 C 233.074 349.169,234.572 348.892,234.766 348.801 C 234.873 348.751,235.137 348.683,235.352 348.650 C 235.566 348.618,236.291 348.300,236.962 347.944 C 237.633 347.588,238.291 347.406,238.425 347.539 C 238.558 347.673,238.990 347.489,239.385 347.132 C 239.780 346.775,240.219 346.599,240.362 346.742 C 240.504 346.885,241.501 346.522,242.576 345.937 C 243.651 345.352,244.534 345.016,244.537 345.190 C 244.541 345.365,244.688 345.279,244.865 345.000 C 245.043 344.721,245.567 344.464,246.031 344.429 C 246.495 344.394,246.875 344.216,246.875 344.034 C 246.875 343.853,247.051 343.813,247.266 343.945 C 247.480 344.078,247.656 344.039,247.656 343.859 C 247.656 343.521,249.964 342.436,250.488 342.527 C 250.649 342.555,250.781 342.392,250.781 342.164 C 250.781 341.937,250.913 341.831,251.074 341.930 C 251.235 342.028,252.334 341.607,253.516 340.995 C 254.697 340.382,255.488 339.869,255.273 339.854 C 255.059 339.839,255.938 339.284,257.227 338.619 C 258.516 337.955,259.699 337.211,259.857 336.967 C 260.015 336.723,260.147 336.670,260.150 336.849 C 260.154 337.028,260.859 336.618,261.719 335.938 C 262.578 335.257,263.281 334.822,263.281 334.971 C 263.281 335.121,263.646 334.828,264.092 334.321 C 264.538 333.813,264.765 333.662,264.595 333.984 C 264.250 334.642,266.980 332.563,268.119 331.302 C 268.523 330.854,268.978 330.563,269.128 330.656 C 269.279 330.750,270.062 330.129,270.868 329.278 C 271.675 328.427,272.464 327.811,272.623 327.909 C 272.781 328.007,273.481 327.397,274.179 326.553 C 274.877 325.709,275.655 325.059,275.907 325.107 C 276.160 325.156,276.323 324.976,276.270 324.707 C 276.216 324.438,276.304 324.260,276.465 324.310 C 276.778 324.407,285.404 315.852,286.245 314.610 C 286.522 314.201,286.647 314.131,286.523 314.453 C 286.400 314.775,286.525 314.699,286.802 314.283 C 287.078 313.867,287.744 313.099,288.281 312.576 C 288.818 312.053,289.220 311.487,289.173 311.319 C 289.126 311.151,289.785 310.338,290.637 309.511 C 291.490 308.684,292.187 307.801,292.187 307.548 C 292.187 307.295,292.651 306.724,293.217 306.278 C 293.783 305.833,294.120 305.469,293.965 305.469 C 293.811 305.469,294.222 304.790,294.879 303.961 C 295.535 303.132,295.960 302.341,295.823 302.203 C 295.685 302.066,295.757 301.953,295.982 301.953 C 296.207 301.953,296.884 301.308,297.485 300.519 C 298.087 299.730,298.328 299.237,298.020 299.422 C 297.330 299.838,298.275 298.533,299.219 297.766 C 299.541 297.505,299.646 297.285,299.451 297.278 C 299.257 297.271,299.416 296.914,299.805 296.484 C 300.194 296.055,300.366 295.703,300.188 295.703 C 300.010 295.703,300.290 295.235,300.811 294.664 C 301.332 294.092,301.494 293.753,301.172 293.911 C 300.819 294.084,300.858 293.975,301.270 293.638 C 301.646 293.330,301.953 292.809,301.953 292.479 C 301.953 292.150,302.228 291.775,302.564 291.646 C 302.900 291.517,303.074 291.249,302.951 291.050 C 302.828 290.851,303.005 290.410,303.345 290.071 C 303.684 289.731,303.840 289.453,303.691 289.453 C 303.542 289.453,303.616 289.217,303.855 288.929 C 304.094 288.641,304.174 288.289,304.033 288.148 C 303.892 288.006,303.981 287.891,304.232 287.891 C 304.482 287.891,304.644 287.749,304.590 287.577 C 304.469 287.187,305.945 284.228,306.350 284.049 C 306.513 283.977,306.555 283.771,306.444 283.592 C 306.333 283.413,306.521 282.988,306.860 282.649 C 307.200 282.309,307.373 282.031,307.244 282.031 C 307.116 282.031,307.272 281.526,307.592 280.909 C 307.911 280.292,308.052 279.667,307.906 279.520 C 307.760 279.374,307.863 279.116,308.136 278.948 C 308.409 278.779,308.661 278.261,308.696 277.797 C 308.731 277.333,308.893 276.953,309.055 276.953 C 309.218 276.953,309.249 276.689,309.126 276.367 C 309.002 276.045,309.090 275.781,309.321 275.781 C 309.552 275.781,309.640 275.518,309.516 275.195 C 309.392 274.873,309.505 274.609,309.766 274.609 C 310.026 274.609,310.145 274.363,310.030 274.062 C 309.914 273.760,309.931 273.402,310.068 273.266 C 310.204 273.129,310.379 272.544,310.457 271.965 C 310.534 271.387,310.737 270.822,310.908 270.710 C 311.078 270.599,311.170 270.200,311.112 269.824 C 311.054 269.448,311.182 269.141,311.395 269.141 C 311.609 269.141,311.705 268.921,311.609 268.652 C 311.512 268.384,311.601 267.840,311.805 267.444 C 312.008 267.049,312.241 266.205,312.322 265.569 C 312.631 263.123,313.802 257.599,314.090 257.223 C 314.584 256.579,315.240 246.089,315.286 238.086 C 315.317 232.617,315.030 226.398,314.723 225.901 C 314.605 225.710,314.458 224.111,314.396 222.348 C 314.334 220.584,314.178 219.141,314.049 219.141 C 313.829 219.141,313.704 218.093,313.617 215.527 C 313.597 214.937,313.461 214.453,313.314 214.453 C 313.167 214.453,313.020 214.058,312.987 213.574 C 312.954 213.091,312.846 212.256,312.747 211.719 C 312.649 211.182,312.457 210.142,312.322 209.408 C 312.186 208.673,311.930 207.814,311.753 207.497 C 311.575 207.180,311.516 206.594,311.620 206.195 C 311.729 205.779,311.605 205.469,311.332 205.469 C 311.046 205.469,310.954 205.207,311.104 204.816 C 311.242 204.458,311.191 204.062,310.991 203.937 C 310.791 203.813,310.566 203.184,310.491 202.539 C 310.416 201.895,310.200 201.255,310.011 201.119 C 309.822 200.982,309.668 200.411,309.668 199.849 C 309.668 199.288,309.504 198.828,309.303 198.828 C 309.102 198.828,309.028 198.682,309.138 198.504 C 309.328 198.197,307.648 193.598,307.044 192.773 C 306.886 192.559,306.262 190.977,305.658 189.258 C 305.053 187.539,304.323 185.855,304.037 185.516 C 303.750 185.177,303.515 184.650,303.514 184.344 C 303.513 184.039,303.079 183.086,302.549 182.227 C 302.020 181.367,301.581 180.390,301.575 180.054 C 301.568 179.719,301.255 179.097,300.879 178.672 C 300.503 178.247,300.137 177.644,300.066 177.332 C 299.995 177.020,299.820 176.676,299.676 176.566 C 298.958 176.021,298.237 174.847,298.828 175.187 C 299.181 175.391,299.112 175.180,298.653 174.658 C 298.234 174.181,297.852 173.516,297.802 173.181 C 297.753 172.846,297.318 172.151,296.835 171.637 C 296.353 171.124,296.120 170.698,296.319 170.691 C 296.517 170.684,296.404 170.464,296.066 170.202 C 295.182 169.516,290.625 162.632,290.625 161.982 C 290.625 161.681,289.705 160.487,288.580 159.330 C 287.455 158.173,286.804 157.402,287.133 157.617 C 287.463 157.832,287.416 157.716,287.030 157.359 C 286.644 157.003,286.328 156.594,286.328 156.452 C 286.328 156.309,285.493 155.353,284.473 154.327 C 283.452 153.302,281.695 151.404,280.568 150.110 C 278.206 147.398,268.043 137.109,267.726 137.109 C 267.610 137.109,266.141 135.747,264.463 134.082 C 262.785 132.417,259.868 129.648,257.982 127.930 C 256.095 126.211,253.502 123.838,252.218 122.656 C 248.636 119.358,236.670 107.359,235.352 105.742 C 233.799 103.839,232.879 102.760,231.338 101.039 C 230.635 100.253,230.195 99.604,230.362 99.596 C 230.528 99.589,230.249 99.238,229.742 98.815 C 229.235 98.393,228.971 98.041,229.156 98.034 C 229.341 98.027,229.077 97.675,228.570 97.253 C 228.063 96.830,227.799 96.479,227.984 96.471 C 228.169 96.464,227.905 96.113,227.398 95.690 C 226.891 95.268,226.627 94.916,226.812 94.909 C 226.997 94.902,226.760 94.572,226.286 94.176 C 225.812 93.780,225.505 93.375,225.605 93.275 C 225.705 93.176,225.433 92.775,225.002 92.385 C 224.571 91.995,224.219 91.467,224.219 91.211 C 224.219 90.955,223.871 90.432,223.447 90.047 C 223.022 89.663,222.754 89.220,222.852 89.063 C 222.949 88.905,222.680 88.461,222.254 88.075 C 221.397 87.299,220.313 85.319,220.313 84.529 C 220.313 83.587,219.420 82.054,219.017 82.303 C 218.776 82.452,218.714 82.297,218.862 81.913 C 218.996 81.562,218.958 81.183,218.777 81.072 C 218.596 80.960,218.335 80.264,218.196 79.525 C 218.057 78.786,217.779 78.125,217.576 78.056 C 217.374 77.986,216.921 76.523,216.569 74.805 C 216.218 73.086,215.798 71.504,215.637 71.289 C 215.142 70.629,214.824 68.347,214.630 64.063 C 214.461 60.325,214.144 57.224,213.803 55.957 C 213.731 55.688,213.623 55.243,213.564 54.968 C 213.504 54.693,213.030 53.870,212.510 53.140 C 211.991 52.409,211.819 51.965,212.130 52.152 C 212.441 52.339,211.904 51.698,210.938 50.729 C 208.904 48.690,206.442 47.101,205.866 47.457 C 205.648 47.592,205.469 47.487,205.469 47.224 C 205.469 46.960,205.353 46.860,205.212 47.002 C 205.070 47.143,204.716 47.061,204.424 46.818 C 203.513 46.063,197.317 46.084,195.313 46.850 " stroke="none" fill="#fc3c3c" fill-rule="evenodd"></path><path id="path1" d="M189.845 50.194 C 189.341 50.730,189.003 51.234,189.094 51.314 C 189.184 51.394,189.667 50.955,190.166 50.339 C 191.285 48.960,191.088 48.871,189.845 50.194 M214.565 62.305 C 214.568 63.379,214.644 63.772,214.733 63.178 C 214.823 62.584,214.821 61.706,214.728 61.225 C 214.635 60.745,214.562 61.230,214.565 62.305 M214.703 67.188 C 215.236 70.280,215.603 71.349,215.372 69.141 C 215.248 67.959,214.994 66.729,214.807 66.406 C 214.593 66.038,214.554 66.329,214.703 67.188 M216.852 76.172 C 216.852 76.494,217.003 77.109,217.188 77.539 C 217.399 78.031,217.523 78.104,217.523 77.734 C 217.523 77.412,217.372 76.797,217.188 76.367 C 216.976 75.875,216.852 75.803,216.852 76.172 M172.070 78.516 C 171.924 78.978,171.892 79.444,171.999 79.551 C 172.106 79.658,172.314 79.368,172.461 78.906 C 172.608 78.444,172.640 77.978,172.532 77.871 C 172.425 77.763,172.217 78.054,172.070 78.516 M220.313 84.641 C 220.313 85.228,221.474 87.447,221.929 87.728 C 222.146 87.863,221.937 87.207,221.465 86.271 C 220.487 84.332,220.313 84.085,220.313 84.641 M168.032 87.321 C 167.378 88.758,167.503 89.064,168.210 87.758 C 168.541 87.149,168.738 86.577,168.649 86.487 C 168.559 86.398,168.282 86.773,168.032 87.321 M165.280 94.792 C 165.255 95.043,165.121 95.571,164.982 95.964 C 164.785 96.519,164.837 96.580,165.214 96.233 C 165.480 95.987,165.614 95.460,165.512 95.061 C 165.409 94.662,165.305 94.541,165.280 94.792 M231.303 100.977 C 232.905 102.737,233.159 102.737,231.755 100.977 C 231.155 100.225,230.528 99.609,230.362 99.609 C 230.195 99.609,230.619 100.225,231.303 100.977 M256.250 126.367 C 256.979 127.119,257.663 127.734,257.770 127.734 C 257.878 127.734,257.369 127.119,256.641 126.367 C 255.912 125.615,255.228 125.000,255.120 125.000 C 255.013 125.000,255.521 125.615,256.250 126.367 M274.609 143.872 C 274.609 143.939,275.181 144.511,275.879 145.142 L 277.148 146.289 276.001 145.020 C 274.932 143.836,274.609 143.570,274.609 143.872 M282.240 152.051 C 282.823 152.749,283.586 153.476,283.935 153.666 C 284.285 153.856,283.875 153.284,283.026 152.396 C 281.180 150.466,280.764 150.283,282.240 152.051 M172.070 152.344 C 172.404 152.988,172.764 153.516,172.872 153.516 C 172.979 153.516,172.794 152.988,172.461 152.344 C 172.128 151.699,171.767 151.172,171.660 151.172 C 171.552 151.172,171.737 151.699,172.070 152.344 M174.237 155.366 C 174.734 156.062,175.231 156.540,175.342 156.429 C 175.453 156.317,175.047 155.748,174.440 155.164 L 173.335 154.102 174.237 155.366 M118.338 156.543 L 116.992 158.008 118.457 156.662 C 119.263 155.921,119.922 155.262,119.922 155.197 C 119.922 154.899,119.591 155.180,118.338 156.543 M176.632 158.605 C 177.104 159.243,177.646 159.766,177.836 159.766 C 178.026 159.766,177.905 159.489,177.567 159.152 C 177.229 158.814,176.953 158.394,176.953 158.217 C 176.953 158.041,176.688 157.794,176.364 157.670 C 175.954 157.513,176.036 157.799,176.632 158.605 M114.399 160.569 C 113.525 161.330,113.522 161.350,114.334 160.957 C 114.805 160.729,115.299 160.368,115.431 160.154 C 115.815 159.533,115.394 159.702,114.399 160.569 M290.674 162.348 C 290.963 163.205,295.514 169.910,295.811 169.916 C 295.978 169.919,295.031 168.296,293.708 166.309 C 291.301 162.693,290.389 161.503,290.674 162.348 M142.372 193.164 C 142.372 207.773,142.421 213.693,142.480 206.319 C 142.540 198.945,142.540 186.992,142.480 179.757 C 142.421 172.521,142.372 178.555,142.372 193.164 M106.024 170.775 C 105.857 171.058,105.468 171.685,105.159 172.168 C 104.850 172.651,104.694 173.047,104.811 173.047 C 105.167 173.047,106.741 170.673,106.527 170.459 C 106.418 170.350,106.191 170.492,106.024 170.775 M102.253 176.367 C 101.669 177.334,101.266 178.125,101.358 178.125 C 101.450 178.125,102.069 177.334,102.734 176.367 C 103.400 175.400,103.802 174.609,103.629 174.609 C 103.456 174.609,102.837 175.400,102.253 176.367 M99.482 180.674 C 99.337 181.098,99.112 181.709,98.983 182.031 C 98.853 182.354,99.042 182.217,99.403 181.728 C 99.763 181.239,99.988 180.629,99.902 180.371 C 99.815 180.108,99.630 180.241,99.482 180.674 M202.344 184.766 C 202.803 185.410,203.266 185.938,203.374 185.938 C 203.481 185.938,203.193 185.410,202.734 184.766 C 202.275 184.121,201.812 183.594,201.705 183.594 C 201.597 183.594,201.885 184.121,202.344 184.766 M95.976 187.207 C 95.865 187.476,95.492 188.354,95.147 189.160 C 94.240 191.282,94.713 190.958,95.862 188.672 C 96.401 187.598,96.693 186.719,96.510 186.719 C 96.327 186.719,96.087 186.938,95.976 187.207 M305.078 187.616 C 305.078 187.751,305.402 188.703,305.798 189.732 C 306.193 190.760,306.637 191.934,306.783 192.341 C 306.930 192.748,307.133 192.997,307.235 192.895 C 307.337 192.793,306.964 191.581,306.406 190.202 C 305.423 187.775,305.078 187.103,305.078 187.616 M207.813 191.406 C 208.493 192.266,209.138 192.969,209.245 192.969 C 209.353 192.969,208.884 192.266,208.203 191.406 C 207.522 190.547,206.878 189.844,206.770 189.844 C 206.663 189.844,207.132 190.547,207.813 191.406 M87.613 210.383 C 87.388 211.366,87.344 212.026,87.517 211.847 C 87.865 211.487,88.468 208.594,88.195 208.594 C 88.100 208.594,87.838 209.399,87.613 210.383 M314.565 224.023 C 314.568 225.098,314.644 225.491,314.733 224.897 C 314.823 224.303,314.821 223.424,314.728 222.944 C 314.635 222.463,314.562 222.949,314.565 224.023 M217.053 231.524 C 216.517 233.218,215.624 235.460,215.068 236.506 C 214.513 237.551,214.135 238.484,214.230 238.579 C 214.509 238.858,216.617 234.395,217.564 231.518 C 218.045 230.054,218.347 228.763,218.233 228.649 C 218.119 228.536,217.588 229.829,217.053 231.524 M144.776 232.813 C 145.034 234.268,147.215 238.823,147.247 237.973 C 147.257 237.696,146.893 236.738,146.438 235.846 C 145.982 234.953,145.367 233.598,145.071 232.834 L 144.533 231.445 144.776 232.813 M212.176 241.054 C 211.453 242.211,211.774 242.298,212.616 241.173 C 213.002 240.657,213.176 240.234,213.003 240.234 C 212.830 240.234,212.458 240.603,212.176 241.054 M154.297 247.168 C 154.297 247.329,154.956 247.972,155.762 248.598 L 157.227 249.734 155.880 248.305 C 154.475 246.812,154.297 246.684,154.297 247.168 M204.388 249.230 C 203.687 249.868,203.258 250.391,203.436 250.391 C 203.614 250.391,204.265 249.863,204.883 249.219 C 206.319 247.720,206.041 247.727,204.388 249.230 M160.369 251.981 C 160.622 252.391,163.672 254.026,163.672 253.752 C 163.672 253.659,162.877 253.138,161.905 252.595 C 160.933 252.052,160.242 251.775,160.369 251.981 M168.945 256.197 C 169.375 256.385,170.342 256.651,171.094 256.787 C 172.032 256.957,172.216 256.928,171.680 256.693 C 171.250 256.505,170.283 256.240,169.531 256.103 C 168.593 255.933,168.409 255.963,168.945 256.197 M88.852 271.094 C 89.841 274.581,90.820 277.344,91.068 277.344 C 91.370 277.344,89.255 270.753,88.823 270.349 C 88.686 270.222,88.699 270.557,88.852 271.094 M92.590 281.641 C 92.590 281.963,92.760 282.490,92.969 282.813 C 93.305 283.333,93.347 283.333,93.347 282.813 C 93.347 282.490,93.177 281.963,92.969 281.641 C 92.632 281.120,92.590 281.120,92.590 281.641 M97.676 292.616 C 98.125 293.496,98.575 294.134,98.676 294.032 C 98.866 293.843,97.317 291.016,97.024 291.016 C 96.933 291.016,97.227 291.736,97.676 292.616 M106.872 306.836 C 107.224 307.373,107.680 307.813,107.885 307.813 C 108.091 307.813,107.983 307.536,107.645 307.199 C 107.307 306.861,107.031 306.422,107.031 306.222 C 107.031 306.023,106.851 305.859,106.632 305.859 C 106.412 305.859,106.520 306.299,106.872 306.836 M289.680 310.461 L 288.930 311.523 289.973 310.576 C 291.069 309.581,291.204 309.367,290.723 309.387 C 290.562 309.394,290.092 309.877,289.680 310.461 M124.219 325.282 C 124.219 325.774,125.335 326.748,125.598 326.486 C 125.701 326.382,125.433 325.978,125.002 325.588 C 124.571 325.198,124.219 325.060,124.219 325.282 M274.807 325.779 C 274.417 326.210,274.279 326.563,274.501 326.563 C 274.993 326.563,275.967 325.446,275.704 325.183 C 275.601 325.080,275.197 325.348,274.807 325.779 M128.095 328.660 C 129.153 329.807,129.361 329.920,129.082 329.191 C 128.977 328.918,128.499 328.455,128.020 328.163 C 127.189 327.656,127.192 327.679,128.095 328.660 M271.558 328.531 C 271.088 328.969,270.703 329.439,270.703 329.575 C 270.703 329.712,271.143 329.411,271.680 328.906 C 272.596 328.046,272.823 327.734,272.535 327.734 C 272.468 327.734,272.028 328.093,271.558 328.531 M130.872 330.762 C 130.878 330.923,131.362 331.392,131.946 331.805 L 133.008 332.554 132.061 331.512 C 131.066 330.416,130.851 330.281,130.872 330.762 M267.939 331.512 L 266.992 332.554 268.054 331.805 C 268.638 331.392,269.122 330.923,269.128 330.762 C 269.149 330.281,268.934 330.416,267.939 331.512 M155.469 345.275 C 155.469 345.600,157.071 346.184,157.309 345.946 C 157.373 345.882,156.985 345.629,156.447 345.384 C 155.909 345.139,155.469 345.090,155.469 345.275 M243.359 345.556 L 242.383 346.126 243.359 345.866 C 244.447 345.576,244.741 345.392,244.498 345.149 C 244.408 345.059,243.896 345.242,243.359 345.556 " stroke="none" fill="#fc3434" fill-rule="evenodd"></path><path id="path2" d="" stroke="none" fill="#fc3c40" fill-rule="evenodd"></path><path id="path3" d="" stroke="none" fill="#fc3c40" fill-rule="evenodd"></path><path id="path4" d="" stroke="none" fill="#fc3c40" fill-rule="evenodd"></path></g></svg>